<?xml version="1.0" encoding="UTF-8" standalone="no"?>
<svg
   xmlns:dc="http://purl.org/dc/elements/1.1/"
   xmlns:cc="http://creativecommons.org/ns#"
   xmlns:rdf="http://www.w3.org/1999/02/22-rdf-syntax-ns#"
   xmlns:svg="http://www.w3.org/2000/svg"
   xmlns="http://www.w3.org/2000/svg"
   xmlns:sodipodi="http://sodipodi.sourceforge.net/DTD/sodipodi-0.dtd"
   xmlns:inkscape="http://www.inkscape.org/namespaces/inkscape"
   version="1.1"
   x="0px"
   y="0px"
   viewBox="0 0 100 125"
   enable-background="new 0 0 100 100"
   xml:space="preserve"
   id="svg8"
   sodipodi:docname="baby-hand.svg"
   inkscape:version="0.92.2 5c3e80d, 2017-08-06"><metadata
     id="metadata14"><rdf:RDF><cc:Work
         rdf:about=""><dc:format>image/svg+xml</dc:format><dc:type
           rdf:resource="http://purl.org/dc/dcmitype/StillImage" /></cc:Work></rdf:RDF></metadata><defs
     id="defs12" /><sodipodi:namedview
     pagecolor="#ffffff"
     bordercolor="#666666"
     borderopacity="1"
     objecttolerance="10"
     gridtolerance="10"
     guidetolerance="10"
     inkscape:pageopacity="0"
     inkscape:pageshadow="2"
     inkscape:window-width="783"
     inkscape:window-height="480"
     id="namedview10"
     showgrid="false"
     inkscape:zoom="1.888"
     inkscape:cx="50"
     inkscape:cy="62.5"
     inkscape:window-x="0"
     inkscape:window-y="0"
     inkscape:window-maximized="0"
     inkscape:current-layer="svg8" /><path
     d="M41.828,91.489c-11.671,0-18.616-22.491-18.685-22.724c-1.376-4.676-9.472-14.762-10.949-15.993  c-0.149-0.124-0.341-0.277-0.564-0.457c-2.643-2.118-8.83-7.078-5.778-10.934c0.732-0.925,1.627-1.452,2.657-1.566  c2.544-0.276,5.326,1.989,8.57,4.615c0.695,0.563,1.411,1.143,2.145,1.713c3.713,2.889,6.59,3.66,7.799,3.73  c-1.208-3.208-7.597-15.303-9.495-17.836c-2.299-3.065-3.097-6.213-2.19-8.634c0.627-1.675,2.015-2.82,3.908-3.226  c4.423-0.938,8.253,5.813,10.788,10.287l0.431,0.758c1.929,3.375,6.396,8.809,8.376,10.535c0.113-3.785-1.488-16.407-2.134-21.487  c-0.252-1.99-0.441-3.481-0.499-4.092c-0.364-3.812,1.049-6.358,3.877-6.987c2.884-0.639,5.596,0.592,7.265,3.293  c0.637,1.029,1.438,4.66,2.798,10.989c1.051,4.888,2.742,12.76,3.77,14.939c1.968-2.648,6.619-15.88,7.675-19.773  c0.819-3.021,2.302-5.275,4.175-6.348c1.237-0.707,2.621-0.883,3.997-0.508c3.145,0.857,4.592,4.087,3.776,8.429  c-0.422,2.254-2.959,14.802-3.815,18.228c-0.831,3.326-1.52,8.198-1.52,9.348c0,1.061,2.104,5.211,3.297,5.211  c0.001,0,0.002,0,0.003,0c0.726,0,3.35-1.754,5.266-3.129c2.494-1.791,5.074-3.578,7.121-4.36c3.211-1.228,6.536-1.223,8.676-0.042  c1.279,0.705,2.103,1.831,2.381,3.222c0.859,4.291-4.122,7.342-6.516,8.805c-2.229,1.362-6.223,6.461-7.826,9.23  c-0.663,1.146-6.638,11.353-12.142,16.699c-4.306,4.183-9.347,4.601-12.683,4.877c-0.68,0.056-1.29,0.106-1.808,0.184l0,0  c-0.461,0.07-1.04,0.314-1.772,0.622c-1.79,0.753-4.494,1.892-9.558,2.344C42.37,91.477,42.097,91.489,41.828,91.489z"
     id="path2" /></svg>